<svg width="134" height="43" viewBox="0 0 134 43" fill="none" xmlns="http://www.w3.org/2000/svg">
<path d="M11.075 23.5V6H15.125V23.5H11.075ZM23.0281 23.5V6H26.3781L36.7031 18.6H35.0781V6H39.0781V23.5H35.7531L25.4031 10.9H27.0281V23.5H23.0281ZM46.9686 23.5V6H51.0186V20.2H59.7936V23.5H46.9686ZM63.6041 23.5L71.4041 6H75.4041L83.2291 23.5H78.9791L72.5791 8.05H74.1791L67.7541 23.5H63.6041ZM67.5041 19.75L68.5791 16.675H77.5791L78.6791 19.75H67.5041ZM87.6697 23.5V20.875L98.4947 7.825L98.9947 9.3H87.8697V6H102.595V8.625L91.7947 21.675L91.2947 20.2H102.97V23.5H87.6697ZM113.042 13.05H121.467V16.2H113.042V13.05ZM113.342 20.25H122.867V23.5H109.317V6H122.542V9.25H113.342V20.25Z" fill="white"/>
<path d="M38.6288 39.5V31.1H40.2368L43.8128 37.028H42.9608L46.4768 31.1H48.0728L48.0968 39.5H46.2728L46.2608 33.896H46.5968L43.7888 38.612H42.9128L40.0448 33.896H40.4528V39.5H38.6288ZM55.9697 39.644C55.3057 39.644 54.6897 39.536 54.1217 39.32C53.5617 39.104 53.0737 38.8 52.6577 38.408C52.2497 38.016 51.9297 37.556 51.6977 37.028C51.4737 36.5 51.3617 35.924 51.3617 35.3C51.3617 34.676 51.4737 34.1 51.6977 33.572C51.9297 33.044 52.2537 32.584 52.6697 32.192C53.0857 31.8 53.5737 31.496 54.1337 31.28C54.6937 31.064 55.3017 30.956 55.9577 30.956C56.6217 30.956 57.2297 31.064 57.7817 31.28C58.3417 31.496 58.8257 31.8 59.2337 32.192C59.6497 32.584 59.9737 33.044 60.2057 33.572C60.4377 34.092 60.5538 34.668 60.5538 35.3C60.5538 35.924 60.4377 36.504 60.2057 37.04C59.9737 37.568 59.6497 38.028 59.2337 38.42C58.8257 38.804 58.3417 39.104 57.7817 39.32C57.2297 39.536 56.6257 39.644 55.9697 39.644ZM55.9577 37.988C56.3337 37.988 56.6777 37.924 56.9897 37.796C57.3097 37.668 57.5897 37.484 57.8297 37.244C58.0697 37.004 58.2537 36.72 58.3817 36.392C58.5177 36.064 58.5857 35.7 58.5857 35.3C58.5857 34.9 58.5177 34.536 58.3817 34.208C58.2537 33.88 58.0697 33.596 57.8297 33.356C57.5977 33.116 57.3217 32.932 57.0017 32.804C56.6817 32.676 56.3337 32.612 55.9577 32.612C55.5817 32.612 55.2337 32.676 54.9137 32.804C54.6017 32.932 54.3257 33.116 54.0857 33.356C53.8457 33.596 53.6577 33.88 53.5217 34.208C53.3937 34.536 53.3297 34.9 53.3297 35.3C53.3297 35.692 53.3937 36.056 53.5217 36.392C53.6577 36.72 53.8417 37.004 54.0737 37.244C54.3137 37.484 54.5937 37.668 54.9137 37.796C55.2337 37.924 55.5817 37.988 55.9577 37.988ZM66.0652 39.5L62.4412 31.1H64.5412L67.7092 38.54H66.4732L69.6892 31.1H71.6212L67.9852 39.5H66.0652ZM74.1226 39.5V31.1H76.0666V39.5H74.1226ZM81.6481 34.484H85.6921V35.996H81.6481V34.484ZM81.7921 37.94H86.3641V39.5H79.8601V31.1H86.2081V32.66H81.7921V37.94ZM92.4708 39.644C91.7988 39.644 91.1548 39.556 90.5388 39.38C89.9228 39.196 89.4268 38.96 89.0508 38.672L89.7108 37.208C90.0708 37.464 90.4948 37.676 90.9828 37.844C91.4788 38.004 91.9788 38.084 92.4828 38.084C92.8668 38.084 93.1748 38.048 93.4068 37.976C93.6468 37.896 93.8228 37.788 93.9348 37.652C94.0468 37.516 94.1028 37.36 94.1028 37.184C94.1028 36.96 94.0148 36.784 93.8388 36.656C93.6628 36.52 93.4308 36.412 93.1428 36.332C92.8548 36.244 92.5348 36.164 92.1828 36.092C91.8388 36.012 91.4908 35.916 91.1388 35.804C90.7948 35.692 90.4788 35.548 90.1908 35.372C89.9028 35.196 89.6668 34.964 89.4828 34.676C89.3068 34.388 89.2188 34.02 89.2188 33.572C89.2188 33.092 89.3468 32.656 89.6028 32.264C89.8668 31.864 90.2588 31.548 90.7788 31.316C91.3068 31.076 91.9668 30.956 92.7588 30.956C93.2868 30.956 93.8068 31.02 94.3188 31.148C94.8308 31.268 95.2828 31.452 95.6748 31.7L95.0748 33.176C94.6828 32.952 94.2908 32.788 93.8988 32.684C93.5068 32.572 93.1228 32.516 92.7468 32.516C92.3708 32.516 92.0628 32.56 91.8228 32.648C91.5828 32.736 91.4108 32.852 91.3068 32.996C91.2028 33.132 91.1508 33.292 91.1508 33.476C91.1508 33.692 91.2388 33.868 91.4148 34.004C91.5908 34.132 91.8228 34.236 92.1108 34.316C92.3988 34.396 92.7148 34.476 93.0588 34.556C93.4108 34.636 93.7588 34.728 94.1028 34.832C94.4548 34.936 94.7748 35.076 95.0628 35.252C95.3508 35.428 95.5828 35.66 95.7588 35.948C95.9428 36.236 96.0348 36.6 96.0348 37.04C96.0348 37.512 95.9028 37.944 95.6388 38.336C95.3748 38.728 94.9788 39.044 94.4508 39.284C93.9308 39.524 93.2708 39.644 92.4708 39.644Z" fill="#F0B90B"/>
<g filter="url(#filter0_i_74_1477)">
<path d="M0 33.5H35V37.5H4.5L0 33.5Z" fill="#F0B90B"/>
</g>
<g filter="url(#filter1_i_74_1477)">
<path d="M134 33.5H99V37.5H129.5L134 33.5Z" fill="#F0B90B"/>
</g>
<circle cx="56" cy="35.5" r="1" fill="#F0B90B"/>
<defs>
<filter id="filter0_i_74_1477" x="0" y="33.5" width="35" height="5" filterUnits="userSpaceOnUse" color-interpolation-filters="sRGB">
<feFlood flood-opacity="0" result="BackgroundImageFix"/>
<feBlend mode="normal" in="SourceGraphic" in2="BackgroundImageFix" result="shape"/>
<feColorMatrix in="SourceAlpha" type="matrix" values="0 0 0 0 0 0 0 0 0 0 0 0 0 0 0 0 0 0 127 0" result="hardAlpha"/>
<feOffset dy="1"/>
<feGaussianBlur stdDeviation="2"/>
<feComposite in2="hardAlpha" operator="arithmetic" k2="-1" k3="1"/>
<feColorMatrix type="matrix" values="0 0 0 0 0 0 0 0 0 0 0 0 0 0 0 0 0 0 0.2 0"/>
<feBlend mode="normal" in2="shape" result="effect1_innerShadow_74_1477"/>
</filter>
<filter id="filter1_i_74_1477" x="99" y="33.5" width="35" height="5" filterUnits="userSpaceOnUse" color-interpolation-filters="sRGB">
<feFlood flood-opacity="0" result="BackgroundImageFix"/>
<feBlend mode="normal" in="SourceGraphic" in2="BackgroundImageFix" result="shape"/>
<feColorMatrix in="SourceAlpha" type="matrix" values="0 0 0 0 0 0 0 0 0 0 0 0 0 0 0 0 0 0 127 0" result="hardAlpha"/>
<feOffset dy="1"/>
<feGaussianBlur stdDeviation="2"/>
<feComposite in2="hardAlpha" operator="arithmetic" k2="-1" k3="1"/>
<feColorMatrix type="matrix" values="0 0 0 0 0 0 0 0 0 0 0 0 0 0 0 0 0 0 0.2 0"/>
<feBlend mode="normal" in2="shape" result="effect1_innerShadow_74_1477"/>
</filter>
</defs>
</svg>
